# xmcd
#
# Track frame offsets: 
#        150
#        21320
#        38113
#        55470
#        72458
#        93989
#        112561
#        132484
#        149518
#        167255
#        189846
#        209805
#
# Disc length: 3028 seconds
#
# Revision: 12
# Processed by: cddbd v1.5.2PL0 Copyright (c) Steve Scherf et al.
# Submitted via: ExactAudioCopy v1.3
#
DISCID=ab0bd20c
DTITLE=張學友 - 活出生命Live演唱會 Disc 1
DYEAR=2004
DGENRE=Pop
TTITLE0=First of May
TTITLE1=但願人出久
TTITLE2=眼淚
TTITLE3=天黑黑
TTITLE4=聽海
TTITLE5=約定
TTITLE6=藍月亮
TTITLE7=天下無雙
TTITLE8=明天我要嫁給你
TTITLE9=瘋了
TTITLE10=傷追人
TTITLE11=小城大事
EXTD=YEAR: 2004
EXTT0=
EXTT1=
EXTT2=
EXTT3=
EXTT4=
EXTT5=
EXTT6=
EXTT7=
EXTT8=
EXTT9=
EXTT10=
EXTT11=
PLAYORDER=
